<svg width="702" height="550" viewBox="0 0 702 550" fill="none" xmlns="http://www.w3.org/2000/svg">
<path d="M315.688 182H543.25C548.737 182 553.999 184.259 557.878 188.279C561.758 192.299 563.938 197.752 563.938 203.438V377.812C563.961 381.899 562.846 385.905 560.727 389.351C558.608 392.797 555.575 395.536 551.991 397.24C549.252 398.558 546.27 399.244 543.25 399.25C538.394 399.238 533.698 397.444 529.997 394.185C529.936 394.144 529.879 394.094 529.829 394.038L488.299 356.375H315.688C310.201 356.375 304.939 354.116 301.059 350.096C297.18 346.076 295 340.623 295 334.938V203.438C295 197.752 297.18 192.299 301.059 188.279C304.939 184.259 310.201 182 315.688 182ZM315.688 334.938H488.299C493.171 334.935 497.887 336.714 501.617 339.962L501.772 340.109L543.25 377.812V203.438H315.688V334.938ZM481.188 247.75C481.188 244.907 480.098 242.181 478.158 240.171C476.218 238.161 473.587 237.031 470.844 237.031H388.094C385.351 237.031 382.72 238.161 380.78 240.171C378.84 242.181 377.75 244.907 377.75 247.75C377.75 250.593 378.84 253.319 380.78 255.329C382.72 257.339 385.351 258.469 388.094 258.469H470.844C473.587 258.469 476.218 257.339 478.158 255.329C480.098 253.319 481.188 250.593 481.188 247.75ZM481.188 290.625C481.188 287.782 480.098 285.056 478.158 283.046C476.218 281.036 473.587 279.906 470.844 279.906H388.094C385.351 279.906 382.72 281.036 380.78 283.046C378.84 285.056 377.75 287.782 377.75 290.625C377.75 293.468 378.84 296.194 380.78 298.204C382.72 300.214 385.351 301.344 388.094 301.344H470.844C473.587 301.344 476.218 300.214 478.158 298.204C480.098 296.194 481.188 293.468 481.188 290.625Z" fill="#A2BD30"/>
<mask id="mask0_631_23" style="mask-type:alpha" maskUnits="userSpaceOnUse" x="149" y="40" width="325" height="277">
<path d="M149 317V40H474V172.847H277.466V317H149Z" fill="#D9D9D9"/>
</mask>
<g mask="url(#mask0_631_23)">
<path d="M423.25 57H187.438C181.752 57 176.3 59.2586 172.279 63.2789C168.259 67.2992 166 72.7519 166 78.4375V292.812C165.976 296.899 167.131 300.905 169.327 304.351C171.523 307.797 174.667 310.536 178.381 312.24C181.219 313.558 184.309 314.244 187.438 314.25C192.47 314.238 197.336 312.444 201.171 309.185C201.235 309.144 201.294 309.094 201.345 309.038L244.381 271.375H423.25C428.936 271.375 434.389 269.116 438.409 265.096C442.429 261.076 444.688 255.623 444.688 249.938V78.4375C444.688 72.7519 442.429 67.2992 438.409 63.2789C434.389 59.2586 428.936 57 423.25 57ZM423.25 249.938H244.381C239.333 249.935 234.446 251.714 230.581 254.962L230.42 255.109L187.438 292.812V78.4375H423.25V249.938ZM251.75 142.75C251.75 139.907 252.88 137.181 254.89 135.171C256.9 133.161 259.626 132.031 262.469 132.031H348.219C351.062 132.031 353.788 133.161 355.798 135.171C357.809 137.181 358.938 139.907 358.938 142.75C358.938 145.593 357.809 148.319 355.798 150.329C353.788 152.339 351.062 153.469 348.219 153.469H262.469C259.626 153.469 256.9 152.339 254.89 150.329C252.88 148.319 251.75 145.593 251.75 142.75ZM251.75 185.625C251.75 182.782 252.88 180.056 254.89 178.046C256.9 176.036 259.626 174.906 262.469 174.906H348.219C351.062 174.906 353.788 176.036 355.798 178.046C357.809 180.056 358.938 182.782 358.938 185.625C358.938 188.468 357.809 191.194 355.798 193.204C353.788 195.214 351.062 196.344 348.219 196.344H262.469C259.626 196.344 256.9 195.214 254.89 193.204C252.88 191.194 251.75 188.468 251.75 185.625Z" fill="#4972B0"/>
</g>
<path d="M88.1126 460.918H68.6701C68.315 458.403 67.59 456.168 66.495 454.215C65.4001 452.232 63.9944 450.546 62.2781 449.155C60.5617 447.764 58.579 446.699 56.3299 445.959C54.1104 445.219 51.6986 444.849 49.0945 444.849C44.3892 444.849 40.2906 446.018 36.7987 448.356C33.3067 450.664 30.599 454.038 28.6754 458.477C26.7519 462.886 25.7901 468.242 25.7901 474.545C25.7901 481.026 26.7519 486.471 28.6754 490.881C30.6286 495.29 33.3511 498.619 36.843 500.868C40.335 503.117 44.3744 504.242 48.9613 504.242C51.5359 504.242 53.9181 503.902 56.108 503.221C58.3274 502.54 60.2953 501.549 62.0117 500.247C63.7281 498.915 65.1486 497.302 66.2731 495.408C67.4272 493.514 68.2262 491.354 68.6701 488.928L88.1126 489.016C87.6095 493.189 86.3518 497.214 84.3395 501.09C82.3568 504.937 79.6786 508.385 76.305 511.433C72.9611 514.451 68.966 516.848 64.32 518.624C59.7035 520.37 54.4804 521.243 48.6506 521.243C40.5421 521.243 33.2919 519.408 26.8999 515.739C20.5374 512.069 15.5066 506.757 11.8075 499.803C8.13802 492.849 6.30327 484.429 6.30327 474.545C6.30327 464.632 8.16761 456.198 11.8963 449.244C15.625 442.289 20.6854 436.992 27.0774 433.352C33.4695 429.683 40.6605 427.848 48.6506 427.848C53.9181 427.848 58.8009 428.588 63.299 430.067C67.8267 431.547 71.8365 433.707 75.3285 436.548C78.8204 439.36 81.6613 442.807 83.8512 446.891C86.0707 450.975 87.4911 455.65 88.1126 460.918ZM120.45 480.582V520H101.54V429.091H119.917V463.848H120.716C122.255 459.823 124.741 456.671 128.174 454.393C131.607 452.085 135.912 450.93 141.091 450.93C145.826 450.93 149.954 451.966 153.476 454.038C157.027 456.08 159.779 459.024 161.732 462.871C163.715 466.689 164.691 471.261 164.662 476.587V520H145.752V479.961C145.782 475.759 144.716 472.489 142.556 470.151C140.425 467.813 137.436 466.644 133.589 466.644C131.015 466.644 128.736 467.192 126.753 468.287C124.8 469.382 123.261 470.98 122.137 473.081C121.042 475.152 120.48 477.653 120.45 480.582ZM198.986 521.287C194.636 521.287 190.759 520.533 187.356 519.023C183.953 517.485 181.26 515.221 179.277 512.232C177.324 509.213 176.347 505.455 176.347 500.957C176.347 497.169 177.043 493.988 178.434 491.413C179.824 488.839 181.718 486.767 184.115 485.199C186.512 483.63 189.235 482.447 192.283 481.648C195.361 480.849 198.586 480.286 201.96 479.961C205.925 479.547 209.121 479.162 211.548 478.807C213.974 478.422 215.735 477.86 216.83 477.12C217.925 476.38 218.473 475.285 218.473 473.835V473.569C218.473 470.758 217.585 468.583 215.809 467.044C214.063 465.505 211.577 464.735 208.352 464.735C204.949 464.735 202.241 465.49 200.229 466.999C198.216 468.479 196.885 470.343 196.234 472.592L178.744 471.172C179.632 467.029 181.378 463.448 183.982 460.43C186.586 457.382 189.945 455.044 194.059 453.416C198.201 451.759 202.996 450.93 208.441 450.93C212.228 450.93 215.854 451.374 219.316 452.262C222.808 453.15 225.9 454.526 228.593 456.39C231.316 458.255 233.461 460.652 235.03 463.581C236.598 466.481 237.382 469.959 237.382 474.013V520H219.449V510.545H218.916C217.822 512.676 216.357 514.555 214.522 516.183C212.687 517.781 210.483 519.038 207.908 519.956C205.333 520.843 202.359 521.287 198.986 521.287ZM204.401 508.237C207.183 508.237 209.639 507.689 211.77 506.594C213.9 505.47 215.572 503.961 216.786 502.067C217.999 500.173 218.606 498.027 218.606 495.63V488.395C218.014 488.78 217.2 489.135 216.164 489.46C215.158 489.756 214.019 490.037 212.746 490.304C211.474 490.54 210.201 490.762 208.929 490.969C207.656 491.147 206.502 491.31 205.467 491.458C203.247 491.783 201.309 492.301 199.652 493.011C197.994 493.722 196.707 494.683 195.79 495.897C194.872 497.08 194.414 498.56 194.414 500.336C194.414 502.91 195.346 504.878 197.21 506.239C199.104 507.571 201.501 508.237 204.401 508.237ZM288.319 451.818V466.023H247.259V451.818H288.319ZM256.581 435.483H275.491V499.048C275.491 500.794 275.757 502.156 276.29 503.132C276.822 504.079 277.562 504.745 278.509 505.13C279.486 505.514 280.61 505.707 281.883 505.707C282.77 505.707 283.658 505.633 284.546 505.485C285.434 505.307 286.114 505.174 286.588 505.085L289.562 519.157C288.615 519.453 287.283 519.793 285.567 520.178C283.85 520.592 281.764 520.843 279.308 520.932C274.751 521.11 270.756 520.503 267.323 519.112C263.92 517.721 261.271 515.561 259.377 512.631C257.483 509.702 256.551 506.003 256.581 501.534V435.483Z" fill="#A2BD30"/>
<path d="M349.074 520V429.091H379.747C385.665 429.091 390.593 430.127 394.528 432.198C398.494 434.27 401.468 437.096 403.451 440.676C405.433 444.257 406.425 448.326 406.425 452.884C406.425 456.671 405.788 459.912 404.516 462.605C403.243 465.298 401.512 467.473 399.322 469.13C397.133 470.787 394.691 471.986 391.998 472.725V473.436C394.928 473.643 397.769 474.679 400.521 476.543C403.273 478.378 405.537 480.952 407.312 484.267C409.088 487.581 409.976 491.547 409.976 496.163C409.976 500.75 408.955 504.848 406.913 508.459C404.871 512.04 401.734 514.866 397.502 516.937C393.3 518.979 387.944 520 381.434 520H349.074ZM357.375 512.543H381.434C388.447 512.543 393.626 510.989 396.97 507.882C400.343 504.775 402.03 500.868 402.03 496.163C402.03 492.701 401.187 489.564 399.5 486.752C397.843 483.912 395.49 481.663 392.442 480.005C389.424 478.348 385.873 477.52 381.789 477.52H357.375V512.543ZM357.375 470.151H380.501C384.082 470.151 387.219 469.411 389.912 467.931C392.605 466.452 394.706 464.41 396.215 461.806C397.724 459.202 398.479 456.228 398.479 452.884C398.479 448.06 396.911 444.139 393.774 441.12C390.637 438.072 385.961 436.548 379.747 436.548H357.375V470.151ZM436.265 429.091V520H428.364V429.091H436.265ZM483.673 521.42C477.784 521.42 472.576 519.926 468.048 516.937C463.55 513.948 460.028 509.82 457.483 504.553C454.938 499.255 453.666 493.145 453.666 486.22C453.666 479.236 454.938 473.095 457.483 467.798C460.028 462.472 463.55 458.329 468.048 455.369C472.576 452.38 477.784 450.886 483.673 450.886C489.562 450.886 494.756 452.38 499.254 455.369C503.752 458.358 507.273 462.501 509.818 467.798C512.393 473.095 513.68 479.236 513.68 486.22C513.68 493.145 512.408 499.255 509.863 504.553C507.318 509.82 503.781 513.948 499.254 516.937C494.756 519.926 489.562 521.42 483.673 521.42ZM483.673 514.185C488.408 514.185 492.418 512.913 495.703 510.368C498.987 507.823 501.473 504.434 503.16 500.202C504.876 495.971 505.734 491.31 505.734 486.22C505.734 481.13 504.876 476.454 503.16 472.193C501.473 467.931 498.987 464.513 495.703 461.939C492.418 459.364 488.408 458.077 483.673 458.077C478.968 458.077 474.958 459.364 471.644 461.939C468.359 464.513 465.858 467.931 464.142 472.193C462.455 476.454 461.612 481.13 461.612 486.22C461.612 491.31 462.455 495.971 464.142 500.202C465.858 504.434 468.359 507.823 471.644 510.368C474.928 512.913 478.938 514.185 483.673 514.185ZM557.526 521.42C551.637 521.42 546.428 519.926 541.901 516.937C537.402 513.948 533.881 509.82 531.336 504.553C528.791 499.255 527.518 493.145 527.518 486.22C527.518 479.236 528.791 473.095 531.336 467.798C533.881 462.472 537.402 458.329 541.901 455.369C546.428 452.38 551.637 450.886 557.526 450.886C563.415 450.886 568.608 452.38 573.106 455.369C577.604 458.358 581.126 462.501 583.671 467.798C586.245 473.095 587.533 479.236 587.533 486.22C587.533 493.145 586.26 499.255 583.715 504.553C581.17 509.82 577.634 513.948 573.106 516.937C568.608 519.926 563.415 521.42 557.526 521.42ZM557.526 514.185C562.26 514.185 566.27 512.913 569.555 510.368C572.84 507.823 575.326 504.434 577.012 500.202C578.729 495.971 579.587 491.31 579.587 486.22C579.587 481.13 578.729 476.454 577.012 472.193C575.326 467.931 572.84 464.513 569.555 461.939C566.27 459.364 562.26 458.077 557.526 458.077C552.82 458.077 548.81 459.364 545.496 461.939C542.211 464.513 539.711 467.931 537.994 472.193C536.308 476.454 535.464 481.13 535.464 486.22C535.464 491.31 536.308 495.971 537.994 500.202C539.711 504.434 542.211 507.823 545.496 510.368C548.781 512.913 552.791 514.185 557.526 514.185ZM604.878 520V451.818H612.557V462.294H613.267C614.629 458.772 616.892 456.006 620.059 453.993C623.255 451.951 627.087 450.93 631.556 450.93C636.261 450.93 640.123 452.04 643.141 454.26C646.189 456.449 648.468 459.468 649.977 463.315H650.554C652.093 459.527 654.594 456.523 658.056 454.304C661.548 452.055 665.78 450.93 670.751 450.93C677.084 450.93 682.085 452.928 685.755 456.923C689.424 460.888 691.259 466.689 691.259 474.324V520H683.358V474.324C683.358 468.938 681.982 464.898 679.23 462.205C676.478 459.512 672.852 458.166 668.354 458.166C663.146 458.166 659.136 459.764 656.325 462.96C653.514 466.156 652.108 470.21 652.108 475.123V520H644.029V473.613C644.029 468.997 642.742 465.268 640.167 462.427C637.593 459.586 633.967 458.166 629.292 458.166C626.155 458.166 623.329 458.935 620.813 460.474C618.328 462.013 616.36 464.158 614.91 466.911C613.489 469.633 612.779 472.77 612.779 476.321V520H604.878Z" fill="#4972B0"/>
</svg>
